<mxfile host="65bd71144e">
    <diagram id="prtHgNgQTEPvFCAcTncT" name="Page-1">
        <mxGraphModel dx="1380" dy="679" grid="1" gridSize="10" guides="1" tooltips="1" connect="1" arrows="1" fold="1" page="1" pageScale="1" pageWidth="827" pageHeight="1169" math="0" shadow="0">
            <root>
                <mxCell id="0"/>
                <mxCell id="1" parent="0"/>
                <mxCell id="6TJ0VESb4KHDGJbmsSwD-1" value="rent" style="rounded=0;whiteSpace=wrap;html=1;" parent="1" vertex="1">
                    <mxGeometry x="60" y="920" width="120" height="60" as="geometry"/>
                </mxCell>
                <mxCell id="6TJ0VESb4KHDGJbmsSwD-3" value="booking" style="rounded=0;whiteSpace=wrap;html=1;" parent="1" vertex="1">
                    <mxGeometry x="270" y="790" width="120" height="60" as="geometry"/>
                </mxCell>
                <mxCell id="6TJ0VESb4KHDGJbmsSwD-4" value="open system&amp;nbsp;" style="rounded=0;whiteSpace=wrap;html=1;" parent="1" vertex="1">
                    <mxGeometry x="270" y="320" width="120" height="60" as="geometry"/>
                </mxCell>
                <mxCell id="6TJ0VESb4KHDGJbmsSwD-24" style="edgeStyle=orthogonalEdgeStyle;rounded=0;orthogonalLoop=1;jettySize=auto;html=1;exitX=0;exitY=0.5;exitDx=0;exitDy=0;entryX=1;entryY=0.5;entryDx=0;entryDy=0;" parent="1" source="6TJ0VESb4KHDGJbmsSwD-5" target="6TJ0VESb4KHDGJbmsSwD-14" edge="1">
                    <mxGeometry relative="1" as="geometry">
                        <mxPoint x="200" y="700" as="targetPoint"/>
                    </mxGeometry>
                </mxCell>
                <mxCell id="6TJ0VESb4KHDGJbmsSwD-26" style="edgeStyle=orthogonalEdgeStyle;rounded=0;orthogonalLoop=1;jettySize=auto;html=1;exitX=1;exitY=0.5;exitDx=0;exitDy=0;entryX=0;entryY=0.5;entryDx=0;entryDy=0;" parent="1" source="6TJ0VESb4KHDGJbmsSwD-5" target="6TJ0VESb4KHDGJbmsSwD-7" edge="1">
                    <mxGeometry relative="1" as="geometry"/>
                </mxCell>
                <mxCell id="6TJ0VESb4KHDGJbmsSwD-27" style="edgeStyle=orthogonalEdgeStyle;rounded=0;orthogonalLoop=1;jettySize=auto;html=1;exitX=0.5;exitY=1;exitDx=0;exitDy=0;entryX=0.5;entryY=0;entryDx=0;entryDy=0;" parent="1" source="6TJ0VESb4KHDGJbmsSwD-7" edge="1">
                    <mxGeometry relative="1" as="geometry">
                        <mxPoint x="330" y="790" as="targetPoint"/>
                    </mxGeometry>
                </mxCell>
                <mxCell id="6TJ0VESb4KHDGJbmsSwD-5" value="product&amp;nbsp;" style="rounded=0;whiteSpace=wrap;html=1;" parent="1" vertex="1">
                    <mxGeometry x="270" y="670" width="120" height="60" as="geometry"/>
                </mxCell>
                <mxCell id="6TJ0VESb4KHDGJbmsSwD-21" style="edgeStyle=orthogonalEdgeStyle;rounded=0;orthogonalLoop=1;jettySize=auto;html=1;exitX=1;exitY=0.5;exitDx=0;exitDy=0;entryX=0.5;entryY=0;entryDx=0;entryDy=0;" parent="1" source="6TJ0VESb4KHDGJbmsSwD-6" target="6TJ0VESb4KHDGJbmsSwD-15" edge="1">
                    <mxGeometry relative="1" as="geometry"/>
                </mxCell>
                <mxCell id="6TJ0VESb4KHDGJbmsSwD-32" style="edgeStyle=orthogonalEdgeStyle;rounded=0;orthogonalLoop=1;jettySize=auto;html=1;exitX=0;exitY=0.5;exitDx=0;exitDy=0;entryX=0.5;entryY=0;entryDx=0;entryDy=0;" parent="1" source="6TJ0VESb4KHDGJbmsSwD-6" target="6TJ0VESb4KHDGJbmsSwD-11" edge="1">
                    <mxGeometry relative="1" as="geometry"/>
                </mxCell>
                <mxCell id="6TJ0VESb4KHDGJbmsSwD-6" value="login" style="rounded=0;whiteSpace=wrap;html=1;" parent="1" vertex="1">
                    <mxGeometry x="270" y="440" width="120" height="60" as="geometry"/>
                </mxCell>
                <mxCell id="6TJ0VESb4KHDGJbmsSwD-7" value="available&amp;nbsp;" style="rounded=0;whiteSpace=wrap;html=1;" parent="1" vertex="1">
                    <mxGeometry x="460" y="670" width="120" height="60" as="geometry"/>
                </mxCell>
                <mxCell id="6TJ0VESb4KHDGJbmsSwD-23" style="edgeStyle=orthogonalEdgeStyle;rounded=0;orthogonalLoop=1;jettySize=auto;html=1;exitX=0.5;exitY=1;exitDx=0;exitDy=0;entryX=0.5;entryY=0;entryDx=0;entryDy=0;" parent="1" source="6TJ0VESb4KHDGJbmsSwD-8" target="6TJ0VESb4KHDGJbmsSwD-5" edge="1">
                    <mxGeometry relative="1" as="geometry"/>
                </mxCell>
                <mxCell id="6TJ0VESb4KHDGJbmsSwD-8" value="catalogue" style="rounded=0;whiteSpace=wrap;html=1;" parent="1" vertex="1">
                    <mxGeometry x="270" y="560" width="120" height="60" as="geometry"/>
                </mxCell>
                <mxCell id="6TJ0VESb4KHDGJbmsSwD-9" value="hasPaid" style="rounded=0;whiteSpace=wrap;html=1;" parent="1" vertex="1">
                    <mxGeometry x="60" y="790" width="120" height="60" as="geometry"/>
                </mxCell>
                <mxCell id="6TJ0VESb4KHDGJbmsSwD-11" value="invalid account&amp;nbsp;" style="rounded=0;whiteSpace=wrap;html=1;" parent="1" vertex="1">
                    <mxGeometry x="120" y="502.5" width="120" height="57.5" as="geometry"/>
                </mxCell>
                <mxCell id="6TJ0VESb4KHDGJbmsSwD-25" style="edgeStyle=orthogonalEdgeStyle;rounded=0;orthogonalLoop=1;jettySize=auto;html=1;exitX=0.5;exitY=0;exitDx=0;exitDy=0;entryX=0;entryY=0.5;entryDx=0;entryDy=0;" parent="1" source="6TJ0VESb4KHDGJbmsSwD-14" target="6TJ0VESb4KHDGJbmsSwD-8" edge="1">
                    <mxGeometry relative="1" as="geometry"/>
                </mxCell>
                <mxCell id="6TJ0VESb4KHDGJbmsSwD-14" value="not available&amp;nbsp;" style="rounded=0;whiteSpace=wrap;html=1;" parent="1" vertex="1">
                    <mxGeometry x="80" y="650" width="120" height="50" as="geometry"/>
                </mxCell>
                <mxCell id="6TJ0VESb4KHDGJbmsSwD-22" style="edgeStyle=orthogonalEdgeStyle;rounded=0;orthogonalLoop=1;jettySize=auto;html=1;exitX=0.5;exitY=1;exitDx=0;exitDy=0;entryX=1;entryY=0.5;entryDx=0;entryDy=0;" parent="1" source="6TJ0VESb4KHDGJbmsSwD-15" target="6TJ0VESb4KHDGJbmsSwD-8" edge="1">
                    <mxGeometry relative="1" as="geometry"/>
                </mxCell>
                <mxCell id="6TJ0VESb4KHDGJbmsSwD-15" value="validate account&amp;nbsp;" style="rounded=0;whiteSpace=wrap;html=1;" parent="1" vertex="1">
                    <mxGeometry x="420" y="500" width="120" height="60" as="geometry"/>
                </mxCell>
                <mxCell id="6TJ0VESb4KHDGJbmsSwD-16" value="" style="endArrow=classic;html=1;rounded=0;exitX=0.5;exitY=1;exitDx=0;exitDy=0;" parent="1" source="6TJ0VESb4KHDGJbmsSwD-4" target="6TJ0VESb4KHDGJbmsSwD-6" edge="1">
                    <mxGeometry width="50" height="50" relative="1" as="geometry">
                        <mxPoint x="390" y="620" as="sourcePoint"/>
                        <mxPoint x="440" y="570" as="targetPoint"/>
                    </mxGeometry>
                </mxCell>
                <mxCell id="4" value="" style="endArrow=none;html=1;entryX=0;entryY=0.5;entryDx=0;entryDy=0;exitX=1;exitY=0.5;exitDx=0;exitDy=0;" edge="1" parent="1" source="6TJ0VESb4KHDGJbmsSwD-9" target="6TJ0VESb4KHDGJbmsSwD-3">
                    <mxGeometry width="50" height="50" relative="1" as="geometry">
                        <mxPoint x="140" y="810" as="sourcePoint"/>
                        <mxPoint x="190" y="760" as="targetPoint"/>
                    </mxGeometry>
                </mxCell>
                <mxCell id="7" value="" style="endArrow=none;html=1;exitX=0;exitY=0.5;exitDx=0;exitDy=0;" edge="1" parent="1" source="6TJ0VESb4KHDGJbmsSwD-9">
                    <mxGeometry width="50" height="50" relative="1" as="geometry">
                        <mxPoint x="110" y="780" as="sourcePoint"/>
                        <mxPoint x="60" y="740" as="targetPoint"/>
                    </mxGeometry>
                </mxCell>
                <mxCell id="8" value="" style="endArrow=none;html=1;" edge="1" parent="1">
                    <mxGeometry width="50" height="50" relative="1" as="geometry">
                        <mxPoint x="60" y="740" as="sourcePoint"/>
                        <mxPoint x="280" y="740" as="targetPoint"/>
                    </mxGeometry>
                </mxCell>
                <mxCell id="9" value="" style="endArrow=none;html=1;" edge="1" parent="1">
                    <mxGeometry width="50" height="50" relative="1" as="geometry">
                        <mxPoint x="280" y="790" as="sourcePoint"/>
                        <mxPoint x="280" y="740" as="targetPoint"/>
                    </mxGeometry>
                </mxCell>
                <mxCell id="10" value="" style="endArrow=classic;html=1;exitX=0.5;exitY=1;exitDx=0;exitDy=0;entryX=0.5;entryY=0;entryDx=0;entryDy=0;" edge="1" parent="1" source="6TJ0VESb4KHDGJbmsSwD-9" target="6TJ0VESb4KHDGJbmsSwD-1">
                    <mxGeometry width="50" height="50" relative="1" as="geometry">
                        <mxPoint x="410" y="860" as="sourcePoint"/>
                        <mxPoint x="460" y="810" as="targetPoint"/>
                    </mxGeometry>
                </mxCell>
            </root>
        </mxGraphModel>
    </diagram>
</mxfile>